<svg width="23" height="29" viewBox="0 0 23 29" fill="none" xmlns="http://www.w3.org/2000/svg">
<mask id="mask0_7_14" style="mask-type:luminance" maskUnits="userSpaceOnUse" x="0" y="0" width="23" height="29">
<path d="M0.973969 0.453125H22.2656V28.3333H0.973969V0.453125Z" fill="white"/>
</mask>
<g mask="url(#mask0_7_14)">
<path d="M11.1927 9.23958L9.5 10.9323L19.1823 20.6146L11.5312 28.2448L3.30208 20.0156L4.60937 18.7031L11.5312 25.625L16.526 20.6302L14.9792 19.0781L11.9948 22.0625L11.974 22.0417L11.9583 22.0625L0.984375 11.0885L2.29687 9.78125L11.974 19.4635L13.6667 17.7708L3.98437 8.08854L11.6354 0.453125L19.8698 8.6875L18.5573 10L11.6354 3.07292L6.64062 8.07292L8.19271 9.61979L11.1719 6.63541L11.1927 6.65625L11.2135 6.64062L22.1823 17.6094L20.875 18.9219L11.1927 9.23958Z" fill="#8C52FF"/>
</g>
</svg>
